{
    "asset" : {
        "generator" : "Khronos glTF Blender I/O v1.8.19",
        "version" : "2.0"
    },
    "scene" : 0,
    "scenes" : [
        {
            "name" : "Scene",
            "nodes" : [
                0
            ]
        }
    ],
    "nodes" : [
        {
            "mesh" : 0,
            "name" : "\u8def\u706f66"
        }
    ],
    "materials" : [
        {
            "doubleSided" : true,
            "name" : "Mat3d66-1536188-40-6901.002",
            "pbrMetallicRoughness" : {
                "baseColorFactor" : [
                    0.11372499912977219,
                    0.11372499912977219,
                    0.11372499912977219,
                    1
                ],
                "metallicFactor" : 0,
                "roughnessFactor" : 0.7992125749588013
            }
        },
        {
            "doubleSided" : true,
            "emissiveFactor" : [
                1,
                0.8470590114593506,
                0.7098039984703064
            ],
            "name" : "Mat3d66-1536188-43-9798.001",
            "pbrMetallicRoughness" : {
                "baseColorFactor" : [
                    0,
                    0,
                    0,
                    1
                ],
                "metallicFactor" : 0,
                "roughnessFactor" : 0.7913385629653931
            }
        },
        {
            "doubleSided" : true,
            "name" : "Mat3d66-1536188-40-6901.003",
            "pbrMetallicRoughness" : {
                "baseColorFactor" : [
                    0.11372499912977219,
                    0.11372499912977219,
                    0.11372499912977219,
                    1
                ],
                "metallicFactor" : 0,
                "roughnessFactor" : 0.7677165269851685
            }
        },
        {
            "doubleSided" : true,
            "name" : "Mat3d66-1536188-39-6816.002",
            "pbrMetallicRoughness" : {
                "baseColorFactor" : [
                    0.07843100279569626,
                    0.07843100279569626,
                    0.07843100279569626,
                    1
                ],
                "metallicFactor" : 0,
                "roughnessFactor" : 0.7834645509719849
            }
        }
    ],
    "meshes" : [
        {
            "name" : "Obj3d66-1536188-175-764",
            "primitives" : [
                {
                    "attributes" : {
                        "POSITION" : 0,
                        "NORMAL" : 1,
                        "TEXCOORD_0" : 2
                    },
                    "indices" : 3,
                    "material" : 0
                },
                {
                    "attributes" : {
                        "POSITION" : 4,
                        "NORMAL" : 5,
                        "TEXCOORD_0" : 6
                    },
                    "indices" : 7,
                    "material" : 1
                },
                {
                    "attributes" : {
                        "POSITION" : 8,
                        "NORMAL" : 9,
                        "TEXCOORD_0" : 10
                    },
                    "indices" : 11,
                    "material" : 2
                },
                {
                    "attributes" : {
                        "POSITION" : 12,
                        "NORMAL" : 13,
                        "TEXCOORD_0" : 14
                    },
                    "indices" : 15,
                    "material" : 3
                }
            ]
        }
    ],
    "accessors" : [
        {
            "bufferView" : 0,
            "componentType" : 5126,
            "count" : 3047,
            "max" : [
                0.356645405292511,
                1.6117911338806152,
                0.3421694338321686
            ],
            "min" : [
                -0.34228086471557617,
                0.6771864891052246,
                -0.3566875457763672
            ],
            "type" : "VEC3"
        },
        {
            "bufferView" : 1,
            "componentType" : 5126,
            "count" : 3047,
            "type" : "VEC3"
        },
        {
            "bufferView" : 2,
            "componentType" : 5126,
            "count" : 3047,
            "type" : "VEC2"
        },
        {
            "bufferView" : 3,
            "componentType" : 5123,
            "count" : 3456,
            "type" : "SCALAR"
        },
        {
            "bufferView" : 4,
            "componentType" : 5126,
            "count" : 6284,
            "max" : [
                1.4550416469573975,
                7.559136390686035,
                1.290621042251587
            ],
            "min" : [
                -1.4403777122497559,
                0.6991958618164062,
                -1.305467128753662
            ],
            "type" : "VEC3"
        },
        {
            "bufferView" : 5,
            "componentType" : 5126,
            "count" : 6284,
            "type" : "VEC3"
        },
        {
            "bufferView" : 6,
            "componentType" : 5126,
            "count" : 6284,
            "type" : "VEC2"
        },
        {
            "bufferView" : 7,
            "componentType" : 5123,
            "count" : 31512,
            "type" : "SCALAR"
        },
        {
            "bufferView" : 8,
            "componentType" : 5126,
            "count" : 3120,
            "max" : [
                1.2488802671432495,
                7.686595439910889,
                1.083682656288147
            ],
            "min" : [
                -1.2342201471328735,
                7.536853313446045,
                -1.0985362529754639
            ],
            "type" : "VEC3"
        },
        {
            "bufferView" : 9,
            "componentType" : 5126,
            "count" : 3120,
            "type" : "VEC3"
        },
        {
            "bufferView" : 10,
            "componentType" : 5126,
            "count" : 3120,
            "type" : "VEC2"
        },
        {
            "bufferView" : 11,
            "componentType" : 5123,
            "count" : 16560,
            "type" : "SCALAR"
        },
        {
            "bufferView" : 12,
            "componentType" : 5126,
            "count" : 51605,
            "max" : [
                1.3031147718429565,
                9.904230117797852,
                1.125210165977478
            ],
            "min" : [
                -1.2884509563446045,
                0,
                -1.1400560140609741
            ],
            "type" : "VEC3"
        },
        {
            "bufferView" : 13,
            "componentType" : 5126,
            "count" : 51605,
            "type" : "VEC3"
        },
        {
            "bufferView" : 14,
            "componentType" : 5126,
            "count" : 51605,
            "type" : "VEC2"
        },
        {
            "bufferView" : 15,
            "componentType" : 5123,
            "count" : 125580,
            "type" : "SCALAR"
        }
    ],
    "bufferViews" : [
        {
            "buffer" : 0,
            "byteLength" : 36564,
            "byteOffset" : 0
        },
        {
            "buffer" : 0,
            "byteLength" : 36564,
            "byteOffset" : 36564
        },
        {
            "buffer" : 0,
            "byteLength" : 24376,
            "byteOffset" : 73128
        },
        {
            "buffer" : 0,
            "byteLength" : 6912,
            "byteOffset" : 97504
        },
        {
            "buffer" : 0,
            "byteLength" : 75408,
            "byteOffset" : 104416
        },
        {
            "buffer" : 0,
            "byteLength" : 75408,
            "byteOffset" : 179824
        },
        {
            "buffer" : 0,
            "byteLength" : 50272,
            "byteOffset" : 255232
        },
        {
            "buffer" : 0,
            "byteLength" : 63024,
            "byteOffset" : 305504
        },
        {
            "buffer" : 0,
            "byteLength" : 37440,
            "byteOffset" : 368528
        },
        {
            "buffer" : 0,
            "byteLength" : 37440,
            "byteOffset" : 405968
        },
        {
            "buffer" : 0,
            "byteLength" : 24960,
            "byteOffset" : 443408
        },
        {
            "buffer" : 0,
            "byteLength" : 33120,
            "byteOffset" : 468368
        },
        {
            "buffer" : 0,
            "byteLength" : 619260,
            "byteOffset" : 501488
        },
        {
            "buffer" : 0,
            "byteLength" : 619260,
            "byteOffset" : 1120748
        },
        {
            "buffer" : 0,
            "byteLength" : 412840,
            "byteOffset" : 1740008
        },
        {
            "buffer" : 0,
            "byteLength" : 251160,
            "byteOffset" : 2152848
        }
    ],
    "buffers" : [
        {
            "byteLength" : 2404008,
            "uri" : "data:application/octet-stream;base64,"
        }
    ]
}
